<?xml version="1.0" encoding="UTF-8" standalone="no"?>
<svg
   xmlns:dc="http://purl.org/dc/elements/1.1/"
   xmlns:cc="http://creativecommons.org/ns#"
   xmlns:rdf="http://www.w3.org/1999/02/22-rdf-syntax-ns#"
   xmlns:svg="http://www.w3.org/2000/svg"
   xmlns="http://www.w3.org/2000/svg"
   xmlns:sodipodi="http://sodipodi.sourceforge.net/DTD/sodipodi-0.dtd"
   xmlns:inkscape="http://www.inkscape.org/namespaces/inkscape"
   version="1.0"
   width="598.000000pt"
   height="621.000000pt"
   viewBox="0 0 598.000000 621.000000"
   preserveAspectRatio="xMidYMid meet"
   id="svg8"
   sodipodi:docname="rott_svg.svg"
   inkscape:version="0.92.4 (5da689c313, 2019-01-14)">
  <defs
     id="defs12" />
  <sodipodi:namedview
     pagecolor="#ffffff"
     bordercolor="#666666"
     borderopacity="1"
     objecttolerance="10"
     gridtolerance="10"
     guidetolerance="10"
     inkscape:pageopacity="0"
     inkscape:pageshadow="2"
     inkscape:window-width="1920"
     inkscape:window-height="1017"
     id="namedview10"
     showgrid="false"
     inkscape:zoom="1"
     inkscape:cx="398.66667"
     inkscape:cy="414"
     inkscape:window-x="-8"
     inkscape:window-y="-8"
     inkscape:window-maximized="1"
     inkscape:current-layer="svg8" />
  <metadata
     id="metadata2">
Created by potrace 1.15, written by Peter Selinger 2001-2017
<rdf:RDF>
  <cc:Work
     rdf:about="">
    <dc:format>image/svg+xml</dc:format>
    <dc:type
       rdf:resource="http://purl.org/dc/dcmitype/StillImage" />
    <dc:title></dc:title>
  </cc:Work>
</rdf:RDF>
</metadata>
  <g
     transform="matrix(0.10012892,0,0,-0.08252246,5.9998016,513.2145)"
     id="g6"
     style="fill:#000000;stroke:none">
    <path
       d="m 3295,6190 c 17,-19 17,-19 -34,-13 -39,4 -65,1 -113,-17 -58,-21 -77,-23 -243,-21 -371,5 -361,6 -507,-27 -141,-33 -181,-50 -258,-111 -27,-22 -64,-40 -95,-47 -27,-6 -102,-22 -165,-36 -186,-42 -182,-42 -174,-15 6,21 5,21 -22,-4 -16,-15 -127,-97 -247,-184 -120,-86 -228,-170 -240,-186 -11,-16 -27,-27 -34,-25 -10,4 -13,-8 -13,-47 0,-42 -6,-60 -26,-88 -15,-19 -45,-72 -67,-119 -22,-47 -58,-105 -79,-130 -22,-24 -55,-73 -74,-107 l -35,-62 -112,-25 c -310,-69 -427,-87 -427,-67 0,6 -55,-30 -122,-80 C 71,4679 79,4691 31,4510 -10,4359 -9,4343 39,4289 l 38,-44 -17,-107 c -19,-119 -20,-107 21,-306 58,-275 106,-384 233,-520 45,-48 97,-108 114,-134 43,-63 79,-90 117,-86 21,2 67,-16 150,-57 109,-54 126,-60 188,-61 38,-1 73,-6 79,-12 6,-6 -20,-40 -82,-103 -106,-108 -174,-200 -233,-314 -38,-74 -41,-86 -41,-160 0,-65 4,-90 25,-136 51,-109 140,-170 225,-155 28,6 34,3 52,-26 12,-18 44,-55 71,-83 28,-27 51,-57 51,-66 0,-21 28,-33 45,-19 19,16 69,-6 61,-26 -12,-31 12,-44 68,-38 46,5 53,3 75,-20 l 25,-26 27,25 26,26 38,-35 c 42,-40 49,-42 85,-21 14,8 35,14 48,15 18,0 22,-5 22,-29 0,-35 15,-48 36,-30 23,19 27,3 11,-45 -15,-43 -15,-47 3,-56 15,-8 23,-4 44,22 30,39 48,29 24,-13 -18,-31 -15,-89 5,-89 5,0 20,11 33,25 31,33 46,33 34,-1 -12,-32 -13,-84 -1,-84 5,0 14,7 21,15 7,8 19,15 26,15 26,0 14,-28 -21,-50 -46,-28 -57,-50 -39,-74 12,-17 17,-18 40,-8 43,20 49,2 10,-34 -20,-18 -36,-37 -36,-43 0,-5 -3,-17 -7,-27 -5,-14 -2,-16 20,-10 33,8 33,5 3,-42 -13,-20 -27,-47 -31,-59 -5,-20 -3,-23 19,-23 35,0 40,-15 13,-37 -25,-19 -47,-54 -47,-72 0,-6 19,-11 41,-11 41,0 41,0 35,-33 -3,-17 -9,-58 -12,-89 -4,-36 -12,-58 -19,-58 -7,0 -19,-7 -26,-16 -11,-14 -11,-18 4,-28 12,-9 13,-16 5,-24 -8,-8 -6,-16 7,-28 17,-17 17,-19 -3,-32 -28,-18 -18,-39 27,-58 28,-12 33,-17 21,-24 -8,-5 -25,-10 -37,-10 -38,0 -26,-19 20,-30 23,-6 50,-14 60,-17 11,-3 28,4 40,15 12,11 39,23 59,27 35,7 37,5 56,-30 l 19,-38 21,30 c 11,16 44,42 72,57 l 52,29 25,-32 c 13,-17 31,-31 39,-31 19,0 17,10 -6,40 -25,32 -25,47 0,55 10,3 38,28 60,56 23,27 46,49 51,49 5,0 9,-25 9,-55 0,-47 3,-55 19,-55 21,0 57,43 89,107 12,23 27,45 33,48 18,12 24,-5 9,-28 -7,-12 -14,-41 -15,-65 l -2,-43 26,24 c 62,57 114,76 104,37 -4,-14 0,-20 11,-20 9,0 16,-7 16,-15 0,-29 29,-27 66,3 47,39 64,33 57,-19 -5,-35 -3,-39 16,-39 13,0 25,9 31,22 8,21 9,20 9,-9 1,-21 6,-33 15,-33 11,0 13,-10 9,-41 -6,-38 -5,-41 18,-37 15,2 25,11 27,23 11,72 28,85 52,40 7,-14 26,-30 42,-37 l 28,-13 V 489 c 0,-118 1,-127 20,-132 14,-3 20,-14 20,-32 0,-15 9,-34 20,-43 17,-14 19,-22 11,-49 -9,-30 -8,-32 21,-38 20,-5 33,-3 38,5 6,9 10,8 17,-5 8,-14 16,-16 39,-8 23,7 30,17 34,43 l 5,34 12,-27 c 13,-28 38,-36 46,-14 2,6 13,-6 23,-28 24,-52 53,-95 64,-95 5,0 12,9 15,21 6,19 9,18 39,-17 29,-33 34,-36 53,-24 l 21,14 -24,31 c -29,39 -30,45 -4,45 13,0 22,9 26,25 3,14 12,25 19,25 6,0 19,8 28,18 14,16 14,19 -3,42 -11,14 -20,28 -20,33 0,16 36,5 57,-17 33,-35 78,-40 119,-15 19,11 39,29 44,40 6,10 26,25 44,33 34,14 75,66 116,145 18,36 21,55 17,97 -4,39 -2,56 9,65 8,6 14,20 14,30 0,13 10,20 38,24 20,4 75,18 121,31 91,28 131,58 131,99 0,31 -1,31 -46,0 -46,-31 -57,-31 -74,0 -12,22 -18,25 -44,19 l -31,-6 23,24 c 12,13 22,32 22,41 0,13 41,47 88,73 1,1 -2,13 -7,28 -9,22 -8,26 7,26 10,0 28,7 40,16 21,14 22,17 7,28 -15,11 -14,13 10,24 31,14 25,29 -21,48 -19,8 -34,21 -34,29 0,18 9,19 47,4 40,-15 114,-13 156,5 55,22 46,36 -23,36 -61,0 -120,18 -151,46 -14,12 -15,21 -7,49 l 11,33 64,-39 c 35,-21 68,-39 73,-39 17,0 11,17 -12,34 -14,10 -16,15 -7,12 48,-14 110,-17 123,-7 10,8 33,7 92,-4 103,-20 114,-19 114,5 0,18 2,18 48,5 26,-8 85,-15 131,-15 78,0 83,1 78,20 -5,18 0,20 46,21 92,1 152,13 155,29 1,9 -12,37 -29,63 -17,26 -29,50 -26,53 2,3 36,10 73,15 80,13 90,19 73,46 -10,17 -9,23 10,42 17,17 33,21 84,21 66,0 80,5 90,33 5,13 18,17 52,17 48,0 58,13 28,36 -16,12 -16,13 9,14 40,0 78,17 78,35 0,10 10,15 30,15 24,0 30,4 30,21 0,12 8,23 20,26 11,3 20,10 20,17 0,6 10,16 23,21 35,16 26,28 -33,47 -30,9 -45,17 -33,17 28,1 116,24 123,32 3,3 13,8 23,12 25,9 21,27 -7,27 -14,0 -28,5 -31,10 -3,6 4,10 17,10 39,0 68,12 68,26 0,10 -13,14 -42,14 l -43,1 28,15 c 15,8 27,18 27,23 0,5 14,11 30,15 39,7 39,26 -1,26 -30,0 -31,0 -24,41 6,36 5,41 -14,46 -12,3 -21,12 -21,21 0,8 -8,24 -17,35 -18,19 -17,19 23,13 32,-6 43,-4 47,8 6,15 -12,26 -44,26 -10,0 -19,5 -19,10 0,6 5,10 10,10 6,0 10,9 10,20 0,18 -7,20 -66,20 -68,0 -152,17 -219,46 l -39,16 24,18 c 37,28 228,33 289,7 72,-29 95,-9 36,32 -26,18 -34,29 -30,45 5,17 -4,26 -45,49 -54,30 -189,137 -190,150 0,4 17,7 37,7 35,0 36,1 21,17 -10,10 -39,18 -72,21 -51,4 -55,6 -45,23 8,15 5,26 -11,47 l -22,27 27,20 26,21 -20,45 c -10,24 -22,63 -26,87 l -7,43 36,-6 c 20,-4 36,-3 36,1 0,5 -23,24 -50,43 -43,29 -50,39 -50,67 0,23 -6,38 -20,46 -12,8 -20,24 -20,39 0,16 -16,47 -39,76 -28,35 -40,58 -39,81 1,17 -6,41 -14,54 -8,13 -27,57 -43,98 -39,103 -63,151 -171,331 -52,86 -94,159 -94,162 0,3 10,7 22,9 17,2 33,22 60,76 71,137 124,204 264,332 64,59 191,239 229,324 12,28 34,102 49,164 32,131 33,127 -58,173 -136,69 -249,144 -406,269 -191,153 -214,168 -334,209 -90,32 -269,79 -296,78 -20,0 -481,303 -475,313 2,4 -48,10 -113,13 -132,7 -328,51 -496,111 -54,20 -101,36 -104,36 -3,0 3,-9 13,-20 z m 5,-59 c 0,-10 5,-32 11,-50 9,-26 16,-31 44,-31 18,0 38,-7 45,-15 8,-9 22,-12 41,-8 21,4 30,1 35,-10 3,-9 20,-19 37,-23 18,-3 40,-13 50,-22 15,-14 16,-17 2,-32 -14,-16 -14,-23 6,-74 11,-32 18,-60 15,-63 -3,-3 -33,0 -67,6 -43,7 -83,24 -133,55 -39,24 -72,43 -74,41 -9,-9 23,-48 58,-70 53,-33 187,-78 215,-71 16,4 30,-3 51,-25 l 29,-31 -45,7 c -75,12 -197,56 -253,91 -28,18 -54,31 -56,28 -10,-9 37,-60 67,-73 23,-11 32,-21 32,-39 0,-30 51,-79 110,-104 25,-11 54,-24 65,-29 11,-4 47,-24 80,-43 51,-29 60,-38 58,-61 -2,-23 5,-30 48,-48 35,-16 48,-27 45,-38 -2,-11 13,-24 50,-42 35,-17 54,-33 54,-44 0,-13 17,-25 53,-38 45,-18 52,-25 55,-50 3,-25 19,-41 103,-100 99,-69 100,-70 95,-105 -5,-34 -3,-37 50,-69 50,-30 55,-36 51,-60 -4,-17 1,-39 12,-57 13,-22 15,-33 7,-46 -8,-13 -5,-23 14,-42 23,-25 23,-26 5,-46 -14,-16 -15,-23 -6,-34 7,-8 11,-26 9,-39 -2,-16 10,-41 34,-72 33,-42 36,-49 22,-59 -19,-14 -8,-46 35,-107 29,-39 56,-108 46,-117 -2,-3 -27,14 -56,37 -34,27 -56,38 -63,32 -7,-6 -20,-4 -36,4 -14,8 -35,14 -47,15 -28,0 -28,7 -3,40 l 19,25 -51,26 -51,26 31,11 c 34,12 41,36 22,73 -6,10 -7,19 -3,19 41,1 36,50 -6,50 -15,0 -37,7 -49,16 -18,13 -21,19 -11,30 6,8 10,16 8,17 -52,39 -60,47 -45,47 9,0 16,8 16,18 0,11 -36,38 -112,82 -112,65 -235,169 -210,178 7,2 21,-3 31,-12 15,-14 24,-15 47,-6 27,11 28,13 12,24 -10,7 -18,20 -18,29 0,9 -9,22 -21,30 -20,15 -10,35 11,22 10,-6 50,15 50,26 0,4 -22,21 -50,39 -44,28 -50,36 -50,66 0,27 -5,37 -25,46 -21,10 -27,8 -39,-7 -12,-16 -14,-15 -36,16 -81,116 -101,138 -116,132 -12,-4 -14,-14 -10,-34 5,-24 2,-29 -15,-29 -16,0 -19,-4 -14,-20 5,-15 0,-22 -20,-30 -21,-8 -24,-14 -19,-35 6,-24 5,-26 -22,-19 -16,4 -39,11 -51,15 -18,7 -25,4 -34,-13 -6,-12 -7,-23 -2,-27 5,-3 26,-16 46,-29 36,-23 43,-33 31,-44 -3,-3 -37,3 -76,13 -40,10 -75,16 -80,13 -21,-13 -4,-46 42,-81 27,-21 52,-47 56,-58 4,-11 20,-32 35,-46 l 29,-27 -25,-16 -25,-17 31,-39 c 19,-24 49,-46 76,-56 30,-12 43,-22 40,-33 -2,-9 -7,-15 -13,-14 -5,1 -31,3 -58,4 -63,4 -73,-16 -17,-31 49,-13 56,-40 12,-40 -16,0 -31,-6 -35,-15 -4,-11 2,-15 24,-15 17,0 30,-4 30,-10 0,-5 -9,-10 -20,-10 -11,0 -20,-4 -20,-10 0,-5 6,-10 13,-10 6,0 19,-5 27,-10 12,-8 10,-14 -14,-38 l -28,-30 27,-41 c 16,-24 36,-41 46,-41 12,0 19,-7 19,-20 0,-10 7,-23 17,-28 25,-15 8,-40 -37,-53 -46,-14 -60,-7 -42,21 19,30 15,33 -34,27 l -46,-5 28,29 c 22,23 24,29 11,29 -9,0 -17,7 -17,15 0,18 -14,19 -41,5 -17,-10 -19,-7 -19,20 0,19 -4,29 -10,25 -7,-4 -8,8 -5,37 l 6,43 -34,-38 c -28,-31 -36,-35 -41,-21 -4,10 -12,14 -22,10 -11,-4 -18,1 -21,14 -8,30 -48,23 -48,-9 -1,-35 -41,-52 -96,-40 -55,13 -96,5 -127,-24 l -24,-22 4,25 c 2,16 14,31 36,42 19,9 36,19 39,21 8,9 -17,51 -45,74 -22,18 -24,24 -13,37 18,21 24,20 59,-9 31,-26 50,-20 38,10 -6,18 -1,19 26,4 14,-7 23,-8 31,0 7,7 -25,27 -104,66 -63,31 -124,66 -137,77 l -22,22 27,28 27,28 h -25 c -32,1 -69,28 -52,38 8,5 -9,22 -50,49 -88,58 -112,85 -98,112 10,17 7,27 -13,58 -18,25 -22,40 -15,49 7,8 -5,24 -41,54 -27,23 -50,45 -50,49 0,10 118,-4 153,-18 26,-10 28,-9 22,9 -5,17 -2,20 24,20 20,0 31,5 31,14 0,12 7,12 35,5 26,-7 42,-6 64,6 41,21 47,35 17,35 -14,0 -26,4 -26,8 0,10 37,30 65,34 24,4 34,38 11,38 -10,0 -13,6 -10,15 5,12 -2,15 -29,15 -51,0 -98,11 -91,22 3,5 24,6 47,3 40,-5 43,-4 77,40 19,25 39,45 45,45 5,0 30,-9 54,-21 35,-15 46,-17 53,-7 13,21 9,37 -11,48 -19,10 -19,11 5,37 26,29 19,43 -22,43 -12,0 -27,7 -34,15 -7,9 -29,15 -52,15 -26,0 -37,4 -32,11 4,7 23,9 53,5 77,-12 84,-11 88,1 7,19 -37,36 -115,43 -89,9 -122,30 -46,30 58,0 88,14 64,30 -11,7 -7,10 18,10 26,0 32,4 32,21 0,20 -4,21 -43,17 -27,-3 -50,0 -61,8 -16,11 -14,15 23,38 27,17 49,24 64,21 15,-4 29,0 40,13 16,18 16,19 -8,30 -31,14 -33,42 -4,42 18,0 19,2 9,15 -16,19 -16,19 45,32 76,16 85,15 85,-6 z m -590,-30 c 40,-6 33,-8 -53,-13 -80,-4 -100,-9 -111,-24 -10,-14 -24,-18 -50,-16 -21,2 -36,-1 -36,-7 0,-7 -26,-11 -69,-11 -46,0 -72,-4 -80,-14 -7,-8 -28,-17 -47,-21 -20,-3 -43,-9 -52,-12 -15,-6 -15,-4 1,14 27,31 99,59 227,86 118,26 192,31 270,18 z m 1052,-334 c 101,-122 150,-166 247,-218 174,-94 366,-257 418,-356 30,-57 77,-192 69,-200 -2,-2 -19,24 -38,59 -48,87 -117,193 -167,256 -33,42 -60,61 -134,98 -193,97 -324,199 -415,322 -68,92 -137,231 -81,162 11,-14 57,-69 101,-123 z m -1905,69 c 10,-9 -65,-83 -99,-97 -15,-6 -27,-17 -26,-24 2,-6 -10,-24 -27,-39 l -30,-27 58,7 c 31,3 57,3 57,-1 0,-4 -9,-20 -21,-36 -16,-22 -28,-29 -54,-29 -33,0 -34,-1 -29,-29 5,-22 -2,-45 -26,-89 l -33,-59 42,-53 c 41,-51 42,-55 24,-68 -13,-11 -15,-16 -5,-19 10,-4 10,-9 -3,-23 -13,-14 -14,-23 -6,-38 8,-15 7,-23 -5,-33 -15,-12 -15,-34 1,-71 6,-15 2,-18 -20,-18 -18,0 -29,-6 -32,-20 -3,-13 -14,-20 -28,-20 -13,0 -25,-7 -27,-17 -4,-16 -16,-18 -92,-15 l -88,4 7,31 c 3,18 6,43 6,57 1,13 53,111 116,218 106,175 129,226 89,193 -12,-10 -20,-9 -41,5 -25,16 -26,16 -50,-10 -21,-22 -31,-26 -55,-21 -23,5 -32,3 -36,-10 -6,-16 -8,-16 -16,-1 -5,9 -18,16 -28,16 -14,0 -21,-10 -26,-36 l -7,-37 -17,23 c -23,30 -36,9 -15,-23 14,-22 14,-25 0,-37 -12,-10 -19,-10 -27,-2 -22,22 -31,12 -25,-28 3,-27 1,-43 -9,-51 -8,-7 -12,-20 -8,-31 7,-23 -21,-58 -47,-58 -11,0 -22,-13 -29,-35 -9,-28 -16,-34 -30,-30 -22,7 -37,-12 -21,-28 17,-17 13,-27 -9,-27 -13,0 -24,-10 -30,-25 -5,-14 -17,-25 -25,-25 -32,0 -26,31 18,100 25,39 48,89 52,111 4,24 12,39 21,39 8,0 22,16 29,35 8,19 29,50 45,69 23,26 29,41 25,59 -5,20 0,29 25,47 19,14 40,20 55,17 18,-3 29,2 40,19 9,13 25,24 37,24 12,0 30,7 40,16 14,14 20,14 33,4 13,-10 19,-10 33,3 10,9 27,14 37,11 14,-4 34,9 70,46 37,38 45,50 30,50 -10,0 -15,3 -12,7 4,3 3,11 -2,17 -6,7 13,31 57,69 64,55 69,57 115,53 26,-1 50,-6 54,-10 z m 169,-232 c 27,-8 67,-19 88,-25 l 39,-11 -44,-38 c -24,-22 -50,-39 -57,-40 -9,0 -11,-7 -7,-22 6,-18 4,-20 -11,-13 -46,19 -64,18 -64,-4 0,-16 -6,-21 -26,-21 -15,0 -32,-7 -39,-16 -17,-23 -50,-10 -65,26 -13,31 -24,37 -35,20 -4,-7 -13,-6 -26,1 -11,5 -29,7 -39,4 -24,-8 -28,22 -5,31 10,4 13,13 10,25 -5,15 -1,19 19,19 16,0 27,7 31,20 4,13 15,20 32,20 15,0 33,10 45,25 11,14 25,25 33,25 7,0 16,7 19,16 6,15 9,14 30,-5 13,-12 46,-29 72,-37 z m 2039,-254 c 137,-105 257,-215 302,-275 56,-74 141,-248 183,-375 17,-52 49,-184 70,-292 22,-108 45,-208 52,-223 11,-25 104,-76 221,-120 38,-14 51,-26 63,-53 17,-41 14,-45 -23,-44 -71,2 -202,65 -267,128 -60,59 -81,118 -110,314 -54,357 -87,483 -151,570 -45,61 -197,207 -327,314 -71,59 -108,96 -108,109 0,14 4,17 13,10 6,-5 44,-34 82,-63 z m -1992,-35 c 31,-16 42,-17 57,-7 27,17 80,16 80,-2 0,-8 17,-16 46,-20 26,-3 68,-19 94,-35 27,-16 56,-27 67,-25 25,7 94,-62 71,-71 -10,-4 -38,8 -70,29 -77,51 -184,89 -230,82 -22,-4 -54,0 -78,8 -22,7 -43,10 -46,5 -3,-5 -14,-9 -25,-9 -29,0 -23,-20 11,-33 17,-6 30,-14 30,-17 0,-3 -14,-28 -30,-54 -17,-26 -28,-52 -24,-57 3,-5 -2,-21 -10,-34 -9,-14 -12,-25 -7,-25 6,0 14,6 18,13 14,21 49,37 60,26 7,-7 18,1 32,24 30,49 58,59 86,31 15,-16 14,-19 -17,-52 l -33,-35 28,5 c 18,4 26,1 24,-6 -2,-6 3,-17 12,-23 13,-11 14,-14 2,-22 -16,-11 -60,1 -106,28 -24,14 -36,16 -44,8 -45,-45 65,-117 179,-119 46,-1 68,5 103,25 24,14 50,33 57,42 12,14 16,10 39,-32 26,-47 32,-50 79,-39 8,1 29,15 48,30 22,17 34,22 34,13 0,-7 -13,-23 -29,-35 -16,-11 -28,-29 -27,-39 1,-13 -7,-19 -26,-21 -32,-4 -35,-17 -11,-44 15,-17 15,-18 -14,-18 -17,0 -36,-7 -43,-15 -12,-14 -60,-22 -60,-10 0,3 7,17 16,30 13,20 14,25 2,25 -7,0 -30,11 -50,25 -44,30 -44,30 -50,7 -3,-10 -21,-23 -40,-28 -29,-9 -39,-8 -58,6 -13,10 -29,16 -36,13 -15,-5 -131,52 -161,80 -21,18 -23,19 -23,3 0,-26 -18,-10 -25,24 -7,30 -19,38 -30,20 -12,-19 -21,-10 -32,33 -11,38 -10,44 10,65 18,19 19,25 8,32 -10,6 -20,1 -33,-16 -11,-13 -25,-24 -32,-24 -7,0 -31,-23 -54,-52 -35,-46 -39,-54 -30,-80 8,-23 27,-37 89,-66 43,-20 79,-43 79,-49 0,-21 -23,-15 -72,21 -26,18 -75,43 -108,55 -60,22 -85,47 -74,75 3,8 20,16 37,18 20,2 32,8 32,18 0,8 9,20 19,25 28,14 29,29 4,40 -12,6 -24,17 -26,25 -4,12 -2,12 8,3 9,-8 19,-9 31,-2 15,8 17,17 12,54 -8,59 11,80 79,89 47,6 50,9 45,31 -4,22 -1,25 28,25 18,0 38,7 45,15 7,9 16,14 19,13 3,-2 23,-12 44,-23 z m 3353,-126 93,-61 -31,-86 c -81,-234 -148,-342 -318,-517 -75,-77 -149,-161 -164,-187 -15,-27 -32,-48 -36,-48 -14,0 -103,74 -139,115 -40,46 -99,166 -108,218 -6,39 14,104 28,90 4,-4 9,-21 11,-38 2,-22 8,-30 23,-30 16,0 21,8 24,45 l 3,45 13,-35 c 6,-19 20,-37 29,-38 16,-3 18,3 15,47 -5,59 3,55 21,-11 18,-68 80,-130 80,-80 0,9 -7,41 -15,71 -16,60 -3,57 18,-4 17,-49 53,-64 44,-19 -3,16 -8,47 -12,69 -5,38 -4,37 24,-22 22,-47 34,-61 45,-57 22,8 20,25 -14,134 -35,110 -35,114 -14,106 8,-3 24,-1 35,5 19,10 19,10 -1,39 -27,37 -25,48 8,62 15,7 29,13 31,15 2,1 -13,33 -34,70 l -36,68 51,-55 c 28,-30 58,-65 67,-77 8,-13 24,-23 35,-23 16,0 10,11 -30,58 -64,75 -76,105 -27,68 41,-31 59,-27 45,10 -14,36 -13,39 9,20 10,-9 25,-14 35,-10 10,4 29,-3 49,-18 27,-20 37,-23 60,-14 19,7 30,7 39,-2 9,-9 5,-20 -19,-49 -44,-56 -59,-89 -77,-178 -18,-89 -33,-115 -94,-161 -27,-21 -37,-35 -30,-42 13,-13 -5,-47 -36,-67 -13,-9 -43,-39 -67,-68 -40,-47 -41,-50 -14,-33 140,88 249,185 283,252 11,22 28,76 37,119 11,57 28,98 56,143 l 41,64 -56,50 c -52,46 -97,108 -79,108 4,0 49,-27 99,-61 z M 616,4811 c -17,-19 -17,-19 55,-1 76,20 77,18 14,-24 -36,-23 -37,-26 -15,-25 14,0 47,4 75,8 l 49,9 -39,-34 c -43,-36 -40,-40 15,-24 l 35,9 -32,-29 -32,-29 49,-3 50,-3 -44,-55 c -38,-48 -43,-59 -38,-92 5,-38 4,-38 -26,-32 -16,3 -54,-1 -85,-10 -71,-21 -94,-20 -101,2 -3,9 -10,36 -16,59 -18,73 -103,125 -141,87 -36,-37 -41,-163 -10,-246 7,-19 10,-14 16,35 4,31 11,59 15,62 4,3 13,-15 19,-39 13,-53 43,-79 117,-103 30,-9 54,-20 54,-24 0,-31 -285,-124 -296,-96 -33,95 -34,99 -22,164 9,50 9,78 -1,126 -23,114 -32,142 -42,126 -12,-19 -11,-106 1,-149 8,-25 7,-53 -1,-96 -10,-51 -10,-72 4,-125 9,-35 15,-64 14,-65 -2,-2 -148,57 -156,62 -2,2 4,11 13,20 40,39 49,66 54,157 4,88 3,93 -21,116 -48,44 -55,15 -31,-142 4,-26 1,-45 -10,-62 -21,-32 -38,-32 -58,3 -15,25 -14,34 8,142 35,170 39,177 160,260 58,38 112,70 122,70 30,0 62,-12 56,-21 -3,-5 8,-6 23,-4 15,3 60,12 98,19 39,8 81,14 94,15 23,1 23,0 7,-18 z m 1714,-112 c 53,-17 59,-29 16,-29 -60,0 -29,-25 56,-45 62,-16 69,-20 54,-31 -16,-11 -12,-14 35,-28 59,-18 151,-21 179,-6 17,9 26,7 130,-27 12,-4 12,-7 -4,-19 -23,-16 -147,-19 -176,-4 -13,7 -19,6 -24,-6 -4,-11 11,-23 56,-44 66,-31 66,-29 -2,-52 -10,-4 -6,-9 15,-17 17,-6 39,-15 50,-20 20,-9 19,-10 -1,-10 -33,-1 -152,38 -214,70 -87,45 -87,45 -66,68 18,20 17,21 -69,63 -54,26 -105,60 -132,88 l -45,45 34,5 c 20,3 28,8 21,13 -7,4 -22,21 -33,37 l -21,30 53,-35 c 29,-19 68,-40 88,-46 z m -1147,-25 c 28,-15 36,-7 15,14 -22,22 68,14 125,-12 29,-12 91,-54 137,-92 47,-38 150,-117 229,-177 128,-96 146,-106 159,-93 14,13 18,13 43,-5 82,-58 219,-98 337,-99 35,0 44,4 53,23 l 11,23 56,-19 57,-19 148,32 c 130,28 155,31 200,22 87,-17 168,-53 211,-92 23,-20 57,-42 76,-50 19,-7 47,-24 61,-37 31,-28 100,-47 141,-38 21,5 28,3 28,-9 0,-9 16,-20 43,-28 23,-6 46,-18 50,-25 4,-7 28,-18 53,-24 31,-8 44,-16 40,-25 -6,-15 60,-54 90,-54 13,0 14,-3 4,-14 -9,-12 -5,-19 24,-38 23,-14 36,-31 36,-44 0,-18 18,-29 103,-64 110,-46 167,-82 167,-106 0,-8 8,-27 18,-42 l 17,-27 -29,19 c -23,15 -30,16 -37,5 -16,-25 -9,-47 19,-68 62,-47 66,-55 27,-65 -22,-6 -24,-9 -14,-28 l 11,-21 -30,21 c -16,12 -33,22 -36,22 -10,0 -7,-38 4,-45 15,-9 12,-25 -5,-25 -21,0 -19,-10 6,-37 19,-19 20,-25 8,-39 -11,-14 -4,-25 59,-86 75,-73 86,-96 52,-105 -11,-3 -20,-13 -20,-23 0,-13 -6,-16 -26,-12 -20,3 -26,0 -31,-17 -3,-14 -13,-21 -29,-21 -18,0 -24,-6 -24,-21 0,-13 -5,-19 -12,-16 -7,2 -24,8 -37,12 l -24,7 21,-35 c 28,-44 30,-93 5,-82 -10,4 -31,10 -48,13 -27,5 -29,3 -16,-12 26,-31 3,-28 -38,5 -23,18 -43,30 -46,27 -3,-2 4,-22 15,-43 33,-65 21,-122 -18,-83 -7,7 -12,9 -12,4 0,-14 23,-51 50,-81 15,-16 30,-45 34,-63 6,-36 5,-35 -46,0 -32,22 -34,19 -12,-23 24,-48 7,-47 -36,1 -42,49 -50,48 -23,-3 15,-30 15,-31 -1,-18 -9,8 -19,11 -23,7 -3,-3 23,-36 58,-73 35,-36 59,-68 53,-70 -6,-2 -44,19 -85,46 -40,27 -75,49 -76,47 -10,-10 23,-77 54,-108 32,-33 35,-40 23,-49 -9,-6 -11,-12 -5,-15 38,-16 165,-96 165,-104 0,-13 -12,-13 -47,0 -26,9 -27,9 -9,-5 11,-8 17,-18 13,-21 -6,-7 -70,39 -124,90 -18,16 -35,27 -38,24 -6,-6 78,-112 108,-137 18,-15 22,-31 8,-31 -5,0 -44,25 -87,56 -87,62 -118,79 -95,51 7,-9 10,-24 7,-33 -3,-8 8,-48 24,-88 17,-40 28,-80 25,-89 -4,-8 1,-26 9,-39 9,-14 14,-27 11,-30 -3,-3 13,-22 35,-42 l 40,-36 h -48 c -27,0 -57,7 -70,16 -20,14 -22,14 -22,-4 0,-11 7,-25 15,-32 22,-18 18,-30 -10,-30 -37,0 -30,-22 16,-48 22,-13 38,-26 35,-29 -11,-12 -77,9 -106,34 -36,30 -49,24 -30,-14 7,-16 12,-35 11,-44 -5,-41 149,-119 235,-119 47,0 123,26 152,52 24,23 25,23 13,1 -6,-12 -32,-37 -57,-55 l -46,-33 22,-17 c 29,-24 77,-23 118,2 18,11 35,20 38,20 15,0 -36,-64 -69,-87 -33,-23 -36,-28 -21,-36 17,-10 113,-4 149,8 21,8 -116,-132 -150,-152 -17,-10 -14,-12 26,-12 26,-1 60,-8 75,-16 16,-8 50,-15 77,-15 56,0 61,-15 10,-29 -52,-15 -70,-14 -98,5 -24,15 -25,15 -35,-10 -5,-14 -14,-26 -19,-26 -12,0 -2,-32 13,-42 6,-4 37,-8 68,-8 53,0 108,-15 108,-29 0,-3 -19,-17 -41,-29 -31,-18 -50,-22 -75,-17 -30,5 -34,3 -34,-15 0,-13 -8,-24 -20,-27 -11,-3 -20,-10 -20,-15 0,-13 -21,-33 -42,-41 -27,-10 -22,-22 25,-61 l 42,-35 -111,2 c -134,2 -147,-5 -142,-71 l 3,-44 -100,3 -100,4 v -38 c 0,-22 -6,-41 -15,-47 -13,-8 -10,-19 18,-75 42,-85 43,-109 2,-70 -27,26 -32,27 -45,14 -13,-13 -8,-27 50,-124 35,-61 65,-113 65,-117 0,-5 -13,-8 -29,-8 -23,0 -38,11 -72,53 -24,28 -44,53 -45,55 -1,2 -12,-2 -24,-8 -16,-9 -19,-16 -13,-33 4,-12 7,-34 8,-48 0,-14 6,-33 13,-42 14,-16 9,-37 -8,-37 -5,0 -35,35 -66,78 -31,42 -58,79 -60,81 -2,2 -10,-2 -18,-8 -16,-14 -18,-8 -37,127 -11,79 -13,83 -39,89 l -28,5 -4,152 c -3,133 -7,158 -28,211 -19,46 -30,61 -48,63 -17,3 -21,8 -17,22 9,29 10,98 1,107 -7,7 -25,-11 -46,-47 -13,-22 -22,-6 -24,40 -1,53 -16,46 -40,-18 -10,-29 -22,-52 -25,-52 -4,0 -13,16 -20,36 -12,34 -14,35 -31,19 -18,-16 -20,-14 -49,42 l -30,58 -1,-62 c 0,-56 3,-66 31,-98 35,-39 29,-44 -18,-15 -31,18 -33,23 -33,74 0,69 -6,83 -42,102 -36,19 -45,14 -18,-11 20,-18 28,-65 11,-65 -6,0 -18,14 -28,30 -24,41 -32,38 -26,-11 6,-40 5,-41 -17,-29 -19,10 -21,17 -16,51 6,37 5,39 -13,29 -29,-15 -41,-12 -41,8 0,19 -18,42 -32,42 -4,0 -8,-8 -8,-17 0,-22 -36,-83 -49,-83 -11,0 -25,72 -22,114 4,59 35,70 102,36 47,-24 63,-18 55,21 -4,22 -2,29 9,29 9,0 15,9 15,21 0,19 4,20 36,14 22,-4 34,-3 30,3 -3,5 3,12 13,15 14,3 17,11 14,31 -5,26 -5,26 23,12 43,-21 130,-39 154,-31 21,7 21,8 -9,37 -39,39 -40,64 -2,73 20,4 39,-1 65,-16 32,-18 40,-20 66,-9 32,13 38,25 16,33 -7,3 -24,20 -36,37 l -23,32 24,-8 c 13,-4 33,-7 43,-6 10,0 32,-6 47,-14 37,-19 69,-18 98,3 l 24,16 -47,24 c -44,22 -66,47 -53,59 3,3 30,1 61,-5 71,-13 120,-5 110,18 -18,44 -16,48 20,55 20,4 40,15 46,26 15,28 12,76 -5,90 -13,11 -13,15 -3,21 7,5 22,9 32,9 18,0 45,26 46,43 0,4 -15,7 -33,7 -20,0 -42,9 -57,22 -22,21 -22,22 -4,29 10,4 28,8 38,8 11,1 30,11 43,23 l 23,21 -30,19 c -40,24 -38,38 4,31 39,-6 55,10 32,33 -23,22 -20,54 4,54 25,0 25,-1 -5,51 -27,47 -34,94 -12,86 56,-21 57,-20 57,20 -1,21 -7,55 -14,76 -14,37 -14,37 14,37 15,0 35,9 46,21 l 19,22 -47,-6 c -46,-6 -48,-5 -48,17 0,39 11,56 34,56 41,0 48,14 21,40 -33,31 -32,45 5,60 36,15 47,28 77,91 19,42 20,50 7,45 -9,-3 -27,-9 -40,-12 -22,-6 -23,-4 -14,25 5,17 7,31 5,31 -2,0 -25,-25 -51,-55 -36,-42 -44,-59 -36,-67 18,-18 16,-22 -41,-61 l -53,-37 -14,-110 c -7,-61 -15,-110 -18,-110 -3,0 -19,11 -37,24 l -31,24 4,-59 c 4,-54 3,-59 -16,-59 -16,0 -21,-9 -27,-55 l -7,-56 -34,7 c -38,7 -42,-1 -18,-34 19,-27 21,-23 -35,-52 -28,-14 -54,-20 -71,-17 -23,5 -28,1 -38,-27 -7,-17 -27,-47 -47,-66 -29,-28 -44,-34 -90,-38 -46,-4 -55,-7 -50,-21 4,-14 -2,-16 -35,-13 -32,3 -40,1 -40,-12 0,-9 -7,-16 -15,-16 -8,0 -15,-9 -15,-20 0,-30 -13,-24 -34,14 l -18,34 -37,-25 c -32,-22 -43,-24 -106,-20 -38,2 -78,8 -89,12 -15,7 -17,5 -12,-13 7,-21 6,-21 -28,-7 -43,18 -54,19 -38,3 19,-19 14,-28 -15,-28 -19,0 -43,15 -81,52 l -54,53 27,-54 c 17,-34 22,-52 13,-49 -7,3 -31,11 -53,18 -22,7 -58,19 -80,27 -44,16 -185,30 -185,18 0,-4 10,-21 22,-37 l 21,-31 -47,7 c -119,18 -159,35 -209,86 -60,61 -87,66 -87,15 0,-19 -3,-35 -6,-35 -4,0 -40,18 -81,41 -41,23 -76,39 -79,37 -2,-3 3,-24 11,-48 8,-24 13,-45 11,-48 -3,-2 -30,5 -61,17 -59,22 -101,26 -124,12 -11,-7 -10,-14 5,-37 l 19,-28 -43,24 c -24,13 -47,29 -52,35 -16,19 19,186 53,255 27,55 40,69 81,91 54,28 96,71 96,98 0,38 210,56 276,25 19,-9 56,-36 83,-60 l 48,-43 22,25 c 26,30 44,26 110,-19 32,-22 45,-26 51,-17 6,9 13,9 31,-3 13,-8 53,-24 89,-35 183,-57 291,-56 411,5 l 77,40 21,-21 c 20,-19 25,-19 92,-8 40,7 106,22 147,35 69,20 77,26 114,75 21,29 55,60 75,70 27,12 39,26 45,50 8,31 11,32 42,27 l 33,-7 54,99 c 37,67 75,119 122,166 42,42 67,76 67,90 0,14 13,30 36,45 41,27 43,18 -31,185 -63,139 -97,184 -224,289 -174,144 -441,307 -471,288 -24,-15 -37,-12 -74,20 -62,54 -50,13 22,-83 82,-107 83,-102 -29,-167 -172,-101 -336,-155 -579,-191 -238,-35 -458,-9 -753,87 -43,15 -80,24 -83,22 -5,-6 254,-121 321,-142 91,-29 203,-39 367,-32 372,14 546,60 812,214 49,29 91,52 93,52 7,0 233,-172 233,-177 0,-2 -39,17 -87,43 l -87,48 29,-38 29,-38 -63,32 -64,32 -126,-47 c -309,-116 -407,-142 -646,-170 -157,-19 -245,-15 -392,16 -171,37 -297,88 -484,195 -67,39 -121,57 -239,81 l -25,5 24,17 24,18 -39,12 c -21,7 -46,15 -54,18 -10,3 0,11 27,21 60,24 59,27 -9,24 -68,-4 -96,10 -64,33 15,11 16,17 7,28 -9,11 -8,17 3,26 19,16 10,43 -29,81 -29,28 -32,36 -28,71 5,31 2,39 -10,39 -11,0 -14,5 -10,17 5,14 1,15 -25,10 -35,-7 -37,-5 -22,23 8,16 5,19 -22,25 l -32,7 30,22 c 59,43 104,89 104,107 0,17 -3,17 -41,4 -50,-18 -86,-18 -117,-2 -22,13 -21,15 49,63 91,63 151,116 169,149 12,22 11,27 -4,38 -17,13 -17,15 3,54 17,34 30,45 73,61 47,17 54,24 62,56 6,22 16,36 25,36 9,0 33,11 55,24 41,26 52,24 139,-20 z m 2742,-472 c 23,-26 53,-45 90,-57 54,-19 65,-28 45,-40 -19,-12 -9,-21 52,-45 l 61,-24 -39,-18 -39,-17 42,-1 h 42 l -11,-30 c -7,-21 -7,-43 0,-70 6,-24 6,-38 0,-34 -15,10 -39,-17 -32,-38 3,-10 0,-26 -7,-34 -11,-13 -17,-10 -51,23 -30,29 -40,35 -50,25 -10,-10 -9,-19 5,-43 9,-17 17,-34 17,-39 0,-5 -34,5 -76,22 -71,29 -75,32 -53,42 19,8 0,11 -91,17 -116,7 -162,18 -176,40 -5,9 1,10 22,5 103,-23 206,-14 235,20 9,11 5,11 -23,4 -18,-6 -51,-10 -73,-9 -35,0 -38,2 -22,12 51,33 53,37 17,27 -74,-21 -200,-6 -200,22 0,6 17,7 38,3 46,-7 84,14 64,37 -10,12 0,17 65,31 69,15 143,51 143,69 0,4 -15,1 -32,-6 -34,-14 -118,-29 -118,-22 0,2 25,16 56,31 30,15 58,34 61,42 3,8 -1,32 -10,54 -21,53 0,53 48,1 z M 129,4166 c 17,-18 19,-25 9,-29 -26,-9 13,-59 60,-75 23,-7 42,-20 42,-28 0,-18 0,-18 -60,6 -28,11 -55,20 -60,20 -17,0 -11,-30 6,-37 16,-6 16,-7 0,-18 -14,-11 -13,-14 14,-25 37,-15 37,-23 5,-40 -33,-18 -32,-52 2,-97 25,-32 26,-36 9,-45 -16,-9 -16,-11 -1,-35 14,-21 15,-27 4,-34 -19,-12 -25,-2 -43,67 -27,106 -45,338 -30,378 8,22 17,20 43,-8 z m 3045,-704 c 56,-41 117,-115 152,-185 25,-48 25,-49 6,-78 l -19,-31 -50,104 c -51,104 -90,152 -188,237 l -50,44 50,-28 c 28,-15 72,-44 99,-63 z m -396,-174 c 9,-9 15,-9 24,0 17,17 42,15 61,-6 15,-16 14,-21 -3,-58 -21,-49 -35,-60 -44,-37 -6,14 -10,13 -34,-9 -15,-15 -45,-34 -67,-43 -37,-15 -40,-15 -52,1 -7,9 -15,36 -19,60 -5,34 -2,48 14,68 l 20,26 25,-20 c 33,-26 37,-25 37,5 0,27 18,33 38,13 z m -195,-43 c 34,-17 37,-22 37,-61 0,-24 5,-55 10,-70 9,-23 7,-31 -11,-50 -12,-13 -36,-30 -55,-39 -42,-20 -107,-7 -142,29 -24,23 -25,27 -12,51 9,17 19,23 31,20 24,-8 63,47 54,76 -5,14 0,28 16,45 13,13 25,23 28,21 3,-1 23,-11 44,-22 z M 1570,3145 c 38,-11 69,-44 76,-82 8,-41 -17,-111 -50,-142 l -23,-22 -13,30 c -7,17 -10,44 -8,61 3,17 -1,35 -8,41 -19,16 -70,-54 -105,-145 -20,-51 -40,-87 -57,-99 -52,-39 -138,-133 -182,-196 -24,-36 -84,-146 -134,-245 -104,-206 -97,-200 -242,-213 -88,-7 -111,4 -144,72 -20,42 -22,58 -18,169 4,115 6,128 37,190 57,117 133,218 256,342 143,144 195,184 242,184 36,0 42,-10 16,-31 -17,-14 -77,-138 -71,-145 2,-2 30,28 61,66 72,88 146,138 240,161 39,9 79,16 87,14 8,-2 26,-7 40,-10 z m 1583,-62 c -15,-27 -63,-104 -106,-172 -44,-68 -95,-157 -114,-197 -31,-67 -36,-74 -73,-84 -21,-6 -52,-21 -67,-34 -21,-18 -46,-26 -98,-31 -107,-11 -197,-32 -286,-66 -67,-26 -85,-29 -105,-20 -22,10 -24,9 -24,-19 0,-35 1,-35 -47,-14 -21,9 -47,20 -58,24 -11,5 -51,22 -90,40 -74,33 -174,53 -161,32 4,-7 3,-12 -3,-12 -5,0 -13,5 -16,10 -8,13 -81,13 -105,0 -16,-8 -21,-5 -32,17 -7,15 -28,38 -47,50 -29,20 -47,23 -120,23 -47,0 -103,-4 -123,-9 -45,-11 -45,-13 -23,134 18,118 41,200 63,217 13,11 15,10 9,-5 -12,-31 12,-160 40,-214 14,-28 38,-64 54,-79 l 28,-27 127,64 c 152,77 176,79 277,25 60,-32 77,-36 139,-36 56,0 69,3 65,14 -4,11 10,17 61,24 101,14 141,12 134,-7 -3,-8 52,32 124,90 71,58 147,117 169,131 36,22 406,176 428,177 4,1 -5,-20 -20,-46 z m -720,-91 c 20,-14 37,-28 37,-33 0,-9 -118,-69 -136,-69 -8,0 -21,11 -30,25 -16,24 -15,27 16,75 35,55 32,55 113,2 z"
       id="path4"
       inkscape:connector-curvature="0" />
  </g>
  <text
     xml:space="preserve"
     style="font-style:normal;font-variant:normal;font-weight:normal;font-stretch:normal;font-size:77.99395752px;line-height:1.25;font-family:'French Script MT';-inkscape-font-specification:'French Script MT, Normal';font-variant-ligatures:normal;font-variant-caps:normal;font-variant-numeric:normal;font-feature-settings:normal;text-align:start;letter-spacing:0px;word-spacing:0px;writing-mode:lr-tb;text-anchor:start;fill:#000000;fill-opacity:1;stroke:none;stroke-width:1.9498589"
     x="151.54808"
     y="528.14539"
     id="text18"
     transform="scale(0.91559011,1.0921918)"><tspan
       sodipodi:role="line"
       id="tspan16"
       x="151.54808"
       y="528.14539"
       style="font-style:normal;font-variant:normal;font-weight:normal;font-stretch:normal;font-size:77.99395752px;font-family:'French Script MT';-inkscape-font-specification:'French Script MT, Normal';font-variant-ligatures:normal;font-variant-caps:normal;font-variant-numeric:normal;font-feature-settings:normal;text-align:start;writing-mode:lr-tb;text-anchor:start;stroke-width:1.9498589">Rocky's Mom</tspan></text>
</svg>
